<?xml version="1.0" encoding="UTF-8"?>
<svg width="130px" height="30px" viewBox="0 0 130 30" version="1.1" xmlns="http://www.w3.org/2000/svg" xmlns:xlink="http://www.w3.org/1999/xlink">
    <!-- Generator: Sketch 51.3 (57544) - http://www.bohemiancoding.com/sketch -->
    <title>Logo Copy 3</title>
    <desc>Created with Sketch.</desc>
    <defs></defs>
    <g id="Logo-Copy-3" stroke="none" stroke-width="1" fill="none" fill-rule="evenodd">
        <path d="M41.5943105,25.0829268 L15.860235,25.0829268 C15.860235,26.6939819 14.5483767,28 12.9301175,28 C11.3118583,28 10,26.6939819 10,25.0829268 L10,15.6033944 C10,14.5116341 10.3537725,13.4490002 11.0087599,12.5733613 L12.0871327,11.1317073 L11.528757,11.1317073 C10.6844478,11.1317073 10,10.4503065 10,9.6097561 C10,8.76920565 10.6844478,8.08780488 11.528757,8.08780488 L14.3640048,8.08780488 L17.3894598,4.0431376 C18.3511059,2.75753315 19.8664768,2 21.4765564,2 L35.977989,2 C37.5880687,2 39.1034396,2.75753315 40.0650856,4.0431376 L43.0905407,8.08780488 L45.9026255,8.08780488 C46.7469347,8.08780488 47.4313825,8.76920565 47.4313825,9.6097561 C47.4313825,10.4503065 46.7469347,11.1317073 45.9026255,11.1317073 L45.3674127,11.1317073 L46.4457855,12.5733613 C47.1007729,13.4490002 47.4545455,14.5116341 47.4545455,15.6033944 L47.4545455,25.0829268 C47.4545455,26.6939819 46.1426872,28 44.524428,28 C42.9061687,28 41.5943105,26.6939819 41.5943105,25.0829268 Z M18.1217009,17.6620103 C21.2858748,19.6013376 24.9314039,20.6439024 28.7272727,20.6439024 C32.5255002,20.6439024 36.173181,19.6000386 39.3386657,17.6584412 C40.0574965,17.2175356 40.281201,16.2799776 39.8383238,15.5643469 C39.3954465,14.8487163 38.4536961,14.6260076 37.7348653,15.0669132 C35.0481851,16.7148288 31.9550402,17.6 28.7272727,17.6 C25.5015076,17.6 22.4101865,16.7159301 19.7246228,15.0699437 C19.0056426,14.6292796 18.0639677,14.8523046 17.621333,15.5680841 C17.1786984,16.2838635 17.4027207,17.2213462 18.1217009,17.6620103 Z" id="Combined-Shape-Copy-18" fill="#FF3859" fill-rule="nonzero"></path>
        <path d="M76.5585366,23.4367868 C77.2970103,24.36806 76.6959271,25.144121 75.2533272,25.144121 L73.7420322,25.144121 C72.7459514,25.144121 71.9731301,24.8681882 71.5266111,24.2990768 L65.1379548,16.8661367 L65.1379548,23.5575074 C65.1379548,24.5750096 64.5712191,25.144121 63.5579645,25.144121 L61.9436266,25.144121 C60.930372,25.144121 60.3636364,24.5750096 60.3636364,23.5575074 L60.3636364,3.58661367 C60.3636364,2.56911142 60.930372,2 61.9436266,2 L63.5579645,2 C64.5712191,2 65.1379548,2.56911142 65.1379548,3.58661367 L65.1379548,15.365752 L71.5094373,8.96755994 C71.9559563,8.43294012 72.7116038,8.19149891 73.7076846,8.19149891 L75.0815892,8.19149891 C76.5585366,8.19149891 77.1596199,9.00205155 76.3352771,9.88158738 L70.0324898,16.0728298 L76.5585366,23.4367868 Z M86.0308426,25.4545455 C80.4150076,25.4545455 77.3408961,22.2640723 77.3408961,16.6764329 C77.3408961,11.0715476 80.4150076,7.8810745 86.0308426,7.8810745 C91.6466775,7.8810745 94.720789,11.0715476 94.720789,16.6764329 C94.720789,22.2640723 91.6466775,25.4545455 86.0308426,25.4545455 Z M86.0308426,21.4190281 C88.6069136,21.4190281 89.8777754,19.9876266 89.8777754,16.6764329 C89.8777754,13.3307475 88.6069136,11.9165919 86.0308426,11.9165919 C83.4547715,11.9165919 82.1839097,13.3307475 82.1839097,16.6764329 C82.1839097,19.9876266 83.4547715,21.4190281 86.0308426,21.4190281 Z M108.634516,9.51942557 C108.892123,8.62264393 109.476033,8.19149891 110.403418,8.19149891 L112.137973,8.19149891 C113.288618,8.19149891 113.803832,8.89857674 113.443182,10.002308 L110.008421,20.470509 C108.771906,24.281831 107.518219,25.4545455 104.32389,25.4545455 C101.146736,25.4545455 99.8758743,24.281831 98.6393602,20.470509 L95.2217725,10.002308 C94.8611226,8.89857674 95.3763368,8.19149891 96.5269819,8.19149891 L98.2615364,8.19149891 C99.188922,8.19149891 99.7728315,8.62264393 100.030439,9.51942557 L102.949986,19.435761 C103.496281,22.0741121 104.315303,22.0741121 104.32389,22.0741121 C104.332477,22.0741121 105.045574,22.0741121 105.697795,19.435761 L108.634516,9.51942557 Z M116.943627,24.9526221 C115.930372,24.9526221 115.363636,24.3835107 115.363636,23.3660085 L115.363636,9.58661367 C115.363636,8.56911142 115.930372,8 116.943627,8 L118.643834,8 C119.657088,8 120.223824,8.56911142 120.223824,9.58661367 L120.223824,23.3660085 C120.223824,24.3835107 119.657088,24.9526221 118.643834,24.9526221 L116.943627,24.9526221 Z M116.943627,6.81707018 C115.930372,6.81707018 115.363636,6.24795876 115.363636,5.23045651 L115.363636,3.58661367 C115.363636,2.56911142 115.930372,2 116.943627,2 L118.643834,2 C119.657088,2 120.223824,2.56911142 120.223824,3.58661367 L120.223824,5.23045651 C120.223824,6.24795876 119.657088,6.81707018 118.643834,6.81707018 L116.943627,6.81707018 Z" id="kovi" fill="#333333"></path>
    </g>
</svg>