<?xml version="1.0" encoding="UTF-8"?>
<svg width="200px" height="200px" viewBox="0 0 200 200" version="1.1" xmlns="http://www.w3.org/2000/svg" xmlns:xlink="http://www.w3.org/1999/xlink">
    <!-- Generator: Sketch 51.3 (57544) - http://www.bohemiancoding.com/sketch -->
    <title>Logo</title>
    <desc>Created with Sketch.</desc>
    <defs></defs>
    <g id="Logo" stroke="none" stroke-width="1" fill="none" fill-rule="evenodd">
        <g id="Group" transform="translate(0.000000, 31.000000)" fill="#FF3859" fill-rule="nonzero">
            <path d="M168.707483,123.258347 L31.292517,123.258347 C31.292517,131.861068 24.2874485,138.834951 15.6462585,138.834951 C7.00506854,138.834951 4.83362405e-15,131.861068 4.83362405e-15,123.258347 L0,72.6394848 C-7.17135717e-16,66.8096964 1.88907658,61.1354378 5.38658203,56.4596962 L11.1448835,48.7615439 L8.16326531,48.7615439 C3.65481837,48.7615439 5.38574956e-15,45.1229961 4.83362405e-15,40.6346199 C4.28149854e-15,36.1462438 3.65481837,32.507696 8.16326531,32.507696 L23.3029382,32.507696 L39.4582806,10.9099581 C44.5932839,4.04507993 52.6850701,1.57897217e-15 61.2825829,0 L138.717417,2.8872634e-14 C147.31493,2.7368851e-14 155.406716,4.04507993 160.541719,10.9099581 L176.697062,32.507696 L191.713049,32.507696 C196.221496,32.507696 199.876314,36.1462438 199.876314,40.6346199 C199.876314,45.1229961 196.221496,48.7615439 191.713049,48.7615439 L188.855117,48.7615439 L194.613418,56.4596962 C198.110923,61.1354378 200,66.8096964 200,72.6394848 L200,123.258347 C200,131.861068 192.994931,138.834951 184.353741,138.834951 C175.712552,138.834951 168.707483,131.861068 168.707483,123.258347 Z M43.3683059,83.632094 C60.2643799,93.9877251 79.7307978,99.5548188 100,99.5548188 C120.281797,99.5548188 139.759705,93.9807889 156.662778,83.6130355 C160.501195,81.258685 161.695734,76.2523077 159.330855,72.4309788 C156.965977,68.6096499 151.937212,67.4204289 148.098795,69.7747794 C133.752445,78.5743285 117.235651,83.3009709 100,83.3009709 C82.7750408,83.3009709 66.267986,78.5802091 51.9275973,69.7909617 C48.0883827,67.4379008 43.0600217,68.6288112 40.6964386,72.4509343 C38.3328555,76.2730575 39.5290913,81.2790332 43.3683059,83.632094 Z" id="Combined-Shape-Copy-20"></path>
        </g>
    </g>
</svg>