<?xml version="1.0" encoding="UTF-8"?>
<svg width="160px" height="39px" viewBox="0 0 160 39" version="1.1" xmlns="http://www.w3.org/2000/svg" xmlns:xlink="http://www.w3.org/1999/xlink">
    <!-- Generator: Sketch 52.5 (67469) - http://www.bohemiancoding.com/sketch -->
    <title>Group</title>
    <desc>Created with Sketch.</desc>
    <g id="Page-1" stroke="none" stroke-width="1" fill="none" fill-rule="evenodd">
        <g id="Group" fill="#333333">
            <path d="M46.2740525,33.9902439 L8.58309038,33.9902439 C8.58309038,36.3625667 6.66170015,38.2857143 4.29154519,38.2857143 C1.92139023,38.2857143 1.32579403e-15,36.3625667 1.32579403e-15,33.9902439 L0,20.031372 C-1.96700082e-16,18.4237249 0.518146718,16.8589673 1.4774625,15.569565 L3.05688233,13.4466899 L2.23906706,13.4466899 C1.00246447,13.4466899 1.47723417e-15,12.4433085 1.32579403e-15,11.2055749 C1.17435389e-15,9.96784129 1.00246447,8.96445993 2.23906706,8.96445993 L6.39166305,8.96445993 L10.8228427,3.00857625 C12.2313007,1.11548838 14.4507621,4.35424055e-16 16.808937,0 L38.0482058,7.96203985e-15 C40.4063808,7.54735028e-15 42.6258421,1.11548838 44.0343002,3.00857625 L48.4654798,8.96445993 L52.5841505,8.96445993 C53.8207531,8.96445993 54.8232176,9.96784129 54.8232176,11.2055749 C54.8232176,12.4433085 53.8207531,13.4466899 52.5841505,13.4466899 L51.8002605,13.4466899 L53.3796804,15.569565 C54.3389961,16.8589673 54.8571429,18.4237249 54.8571429,20.031372 L54.8571429,33.9902439 C54.8571429,36.3625667 52.9357526,38.2857143 50.5655977,38.2857143 C48.1954427,38.2857143 46.2740525,36.3625667 46.2740525,33.9902439 Z M11.8953068,23.0627405 C16.5296585,25.9184532 21.8690188,27.4536585 27.4285714,27.4536585 C32.9915786,27.4536585 38.3340904,25.9165404 42.970362,23.0574848 C44.0231849,22.4082392 44.3508298,21.0276594 43.7021774,19.9738735 C43.053525,18.9200877 41.6742068,18.5921431 40.6213839,19.2413887 C36.6863849,21.6679897 32.1560644,22.9714286 27.4285714,22.9714286 C22.7040112,22.9714286 18.1763619,21.6696113 14.2429981,19.2458512 C13.1899564,18.5969612 11.8107488,18.9253717 11.1624517,19.9793765 C10.5141547,21.0333814 10.842265,22.4138505 11.8953068,23.0627405 Z" id="Combined-Shape-Copy-18" fill-rule="nonzero"></path>
            <path d="M98.0640881,35.7900351 C99.1744184,37.2056233 98.2706611,38.3852801 96.1016438,38.3852801 L93.8293398,38.3852801 C92.331685,38.3852801 91.1697114,37.9658466 90.4983488,37.1007649 L80.8927004,25.8022738 L80.8927004,35.9735373 C80.8927004,37.5201984 80.0405864,38.3852801 78.5171099,38.3852801 L76.0898762,38.3852801 C74.5663997,38.3852801 73.7142857,37.5201984 73.7142857,35.9735373 L73.7142857,2.51816565 C73.7142857,0.971504459 74.5663997,0.106422777 76.0898762,0.106422777 L78.5171099,0.106422777 C80.0405864,0.106422777 80.8927004,0.971504459 80.8927004,2.51816565 L80.8927004,23.5216039 L90.4725272,13.7959887 C91.1438897,12.9833362 92.2800417,12.6163318 93.7776966,12.6163318 L95.8434274,12.6163318 C98.0640881,12.6163318 98.9678453,13.8484179 97.7284068,15.1853623 L88.2518665,24.5964024 L98.0640881,35.7900351 Z M110.978678,38.8571429 C102.535003,38.8571429 97.9129302,34.0074425 97.9129302,25.5139133 C97.9129302,16.9941694 102.535003,12.1444691 110.978678,12.1444691 C119.422353,12.1444691 124.044425,16.9941694 124.044425,25.5139133 C124.044425,34.0074425 119.422353,38.8571429 110.978678,38.8571429 Z M110.978678,32.7229273 C114.851923,32.7229273 116.762724,30.5471158 116.762724,25.5139133 C116.762724,20.4282816 114.851923,18.2786847 110.978678,18.2786847 C107.105432,18.2786847 105.194631,20.4282816 105.194631,25.5139133 C105.194631,30.5471158 107.105432,32.7229273 110.978678,32.7229273 Z M143.636903,14.6348558 C144.024227,13.2716967 144.902163,12.6163318 146.296531,12.6163318 L148.904516,12.6163318 C150.634566,12.6163318 151.409215,13.6911303 150.866961,15.3688645 L145.702634,31.2811245 C143.843476,37.0745503 141.958497,38.8571429 137.155672,38.8571429 C132.37867,38.8571429 130.467869,37.0745503 128.608711,31.2811245 L123.470205,15.3688645 C122.927951,13.6911303 123.7026,12.6163318 125.43265,12.6163318 L128.040635,12.6163318 C129.435003,12.6163318 130.312939,13.2716967 130.700263,14.6348558 L135.089941,29.7082487 C135.911322,33.7186922 137.142761,33.7186922 137.155672,33.7186922 C137.168583,33.7186922 138.240757,33.7186922 139.221403,29.7082487 L143.636903,14.6348558 Z M155.068068,38.0941909 C153.544591,38.0941909 152.692477,37.2291092 152.692477,35.682448 L152.692477,14.7369855 C152.692477,13.1903243 153.544591,12.3252426 155.068068,12.3252426 L157.62441,12.3252426 C159.147886,12.3252426 160,13.1903243 160,14.7369855 L160,35.682448 C160,37.2291092 159.147886,38.0941909 157.62441,38.0941909 L155.068068,38.0941909 Z M155.068068,7.64148854 C153.544591,7.64148854 152.692477,6.77640686 152.692477,5.22974567 L152.692477,2.41174287 C152.692477,0.865081682 153.544591,0 155.068068,0 L157.62441,0 C159.147886,0 160,0.865081682 160,2.41174287 L160,5.22974567 C160,6.77640686 159.147886,7.64148854 157.62441,7.64148854 L155.068068,7.64148854 Z" id="kovi"></path>
        </g>
    </g>
</svg>