<?xml version="1.0" encoding="UTF-8"?>
<svg width="140px" height="34px" viewBox="0 0 140 34" version="1.1" xmlns="http://www.w3.org/2000/svg" xmlns:xlink="http://www.w3.org/1999/xlink">
    <!-- Generator: sketchtool 52.6 (67491) - http://www.bohemiancoding.com/sketch -->
    <title>01C01674-C0C2-4148-9F7D-5C9E0FB06C59</title>
    <desc>Created with sketchtool.</desc>
    <g id="Benchmark" stroke="none" stroke-width="1" fill="none" fill-rule="evenodd">
        <g id="Check-Phone" transform="translate(-34.000000, -40.000000)" fill="#FF3859">
            <g id="kovi-logo-red" transform="translate(34.000000, 40.000000)">
                <path d="M40.6081871,29.3758647 L7.53216374,29.3758647 C7.53216374,31.4261304 5.84603146,33.0881992 3.76608187,33.0881992 C1.68613229,33.0881992 -9.49467925e-15,31.4261304 -9.49467925e-15,29.3758647 L-1.0658141e-14,17.3119932 C-1.08307569e-14,15.9225938 0.454704046,14.5702615 1.29655975,13.4559033 L2.68259301,11.6212212 L1.96491228,11.6212212 C0.879721193,11.6212212 -9.36178167e-15,10.7540549 -9.49467925e-15,9.68435099 C-9.62757683e-15,8.61464712 0.879721193,7.74748079 1.96491228,7.74748079 L5.60905811,7.74748079 L9.49767736,2.600144 C10.7336817,0.964054146 12.6813888,6.07724452e-14 14.7508252,6.03961325e-14 L33.3895257,6.72772778e-14 C35.4589621,6.69188848e-14 37.4066692,0.964054146 38.6426735,2.600144 L42.5312928,7.74748079 L46.1456672,7.74748079 C47.2308583,7.74748079 48.1105795,8.61464712 48.1105795,9.68435099 C48.1105795,10.7540549 47.2308583,11.6212212 46.1456672,11.6212212 L45.4577579,11.6212212 L46.8437911,13.4559033 C47.6856468,14.5702615 48.1403509,15.9225938 48.1403509,17.3119932 L48.1403509,29.3758647 C48.1403509,31.4261304 46.4542186,33.0881992 44.374269,33.0881992 C42.2943194,33.0881992 40.6081871,31.4261304 40.6081871,29.3758647 Z M10.4388273,19.9318353 C14.505742,22.3998679 19.1913429,23.7266599 24.0701754,23.7266599 C28.9520396,23.7266599 33.6404061,22.3982148 37.7090055,19.9272931 C38.6329192,19.3661865 38.9204468,18.1730286 38.3512164,17.2623005 C37.781986,16.3515724 36.5715536,16.0681483 35.6476399,16.6292549 C32.1944481,18.7264303 28.218827,19.8529195 24.0701754,19.8529195 C19.9240975,19.8529195 15.9508205,18.7278318 12.4990638,16.6331116 C11.5749581,16.0723123 10.3646228,16.3561391 9.79570417,17.2670565 C9.22678558,18.1779739 9.51472162,19.371036 10.4388273,19.9318353 Z" id="Combined-Shape-Copy-18" fill-rule="nonzero"></path>
                <path d="M85.6990367,30.9246341 C86.6724946,32.1477832 85.8801451,33.167074 83.9785063,33.167074 L81.9863133,33.167074 C80.673277,33.167074 79.6545419,32.8046595 79.0659394,32.0571795 L70.6443961,22.294638 L70.6443961,31.0831905 C70.6443961,32.4195941 69.8973237,33.167074 68.5616488,33.167074 L66.4336245,33.167074 C65.0979496,33.167074 64.3508772,32.4195941 64.3508772,31.0831905 L64.3508772,2.17583892 C64.3508772,0.839435331 65.0979496,0.091955357 66.4336245,0.091955357 L68.5616488,0.091955357 C69.8973237,0.091955357 70.6443961,0.839435331 70.6443961,2.17583892 L70.6443961,20.324009 L79.0433008,11.920522 C79.6319033,11.2183439 80.6279998,10.9012312 81.9410362,10.9012312 L83.7521207,10.9012312 C85.6990367,10.9012312 86.4913862,11.9658239 85.4047354,13.1210202 L77.0963849,21.2526963 L85.6990367,30.9246341 Z M97.0216223,33.5747904 C89.618814,33.5747904 85.5665123,29.3843723 85.5665123,22.0454781 C85.5665123,14.6839329 89.618814,10.4935148 97.0216223,10.4935148 C104.42443,10.4935148 108.476732,14.6839329 108.476732,22.0454781 C108.476732,29.3843723 104.42443,33.5747904 97.0216223,33.5747904 Z M97.0216223,28.2744778 C100.417406,28.2744778 102.092659,26.3944524 102.092659,22.0454781 C102.092659,17.6512018 100.417406,15.7938274 97.0216223,15.7938274 C93.6258387,15.7938274 91.9505854,17.6512018 91.9505854,22.0454781 C91.9505854,26.3944524 93.6258387,28.2744778 97.0216223,28.2744778 Z M125.654011,12.6453511 C125.993589,11.4675039 126.7633,10.9012312 127.985782,10.9012312 L130.272276,10.9012312 C131.78906,10.9012312 132.468216,11.8299184 131.992807,13.2795765 L127.465095,27.0286779 C125.835119,32.0345286 124.182504,33.5747904 119.971733,33.5747904 C115.7836,33.5747904 114.108346,32.0345286 112.47837,27.0286779 L107.973297,13.2795765 C107.497888,11.8299184 108.177044,10.9012312 109.693828,10.9012312 L111.980322,10.9012312 C113.202804,10.9012312 113.972515,11.4675039 114.312093,12.6453511 L118.160648,25.6696234 C118.880775,29.1348755 119.960413,29.1348755 119.971733,29.1348755 C119.983052,29.1348755 120.923057,29.1348755 121.782817,25.6696234 L125.654011,12.6453511 Z M135.676036,32.9155563 C134.340361,32.9155563 133.593288,32.1680763 133.593288,30.8316728 L133.593288,12.733597 C133.593288,11.3971934 134.340361,10.6497135 135.676036,10.6497135 L137.917253,10.6497135 C139.252928,10.6497135 140,11.3971934 140,12.733597 L140,30.8316728 C140,32.1680763 139.252928,32.9155563 137.917253,32.9155563 L135.676036,32.9155563 Z M135.676036,6.60268247 C134.340361,6.60268247 133.593288,5.8552025 133.593288,4.51879891 L133.593288,2.08388356 C133.593288,0.747479974 134.340361,-6.39488462e-14 135.676036,-6.39488462e-14 L137.917253,-6.39488462e-14 C139.252928,-6.39488462e-14 140,0.747479974 140,2.08388356 L140,4.51879891 C140,5.8552025 139.252928,6.60268247 137.917253,6.60268247 L135.676036,6.60268247 Z" id="kovi" fill-rule="evenodd"></path>
            </g>
        </g>
    </g>
</svg>